<svg width="285" height="40" viewBox="0 0 285 40" xmlns="http://www.w3.org/2000/svg"><path d="M274.769 10.964c-5.833 0-9.946 4.123-9.946 10.066 0 5.938 4.076 10.061 9.983 10.061 3.355 0 6.173-1.21 8.078-3.329l-1.638-1.74c-1.562 1.627-3.731 2.499-6.213 2.499-3.884 0-6.741-2.462-7.276-6.359h16.387c.304-6.771-2.898-11.235-9.375-11.198zm6.708 8.778h-13.72c.458-3.783 3.202-6.243 7.012-6.243 3.923 0 6.514 2.421 6.708 6.243zm-21.084 9.156V11.042h-2.973v4.045c-1.446-2.646-4.037-4.16-7.468-4.16-5.372.037-9.07 3.971-9.07 9.532 0 5.676 3.735 9.65 9.146 9.65 3.392 0 5.983-1.514 7.392-4.162v3.027c0 4.16-2.857 6.81-7.24 6.81-2.666-.038-4.761-.908-6.743-2.535l-1.374 2.269c2.44 1.815 5.07 2.839 8.231 2.876 6.1 0 10.1-3.67 10.1-9.496zm-2.973-8.324c0 4.087-2.857 7.038-6.857 7.038-4.039 0-6.861-2.951-6.896-7.038.035-4.123 2.857-7.075 6.896-7.075 4 0 6.857 2.913 6.857 7.075zm-24.044 10.404h2.898l-.039-13.167c-.037-4.275-2.78-6.884-7.735-6.884-3.432 0-5.603.983-8.194 2.685l1.258 2.158c2.095-1.438 4.15-2.27 6.364-2.27 3.545 0 5.373 1.741 5.373 4.654v1.171h-6.592c-4.725.04-7.508 2.232-7.508 5.715 0 3.442 2.667 6.088 6.822 6.088 3.2 0 5.754-1.058 7.353-3.214v3.064zm-.038-6.886c-.76 2.761-3.35 4.466-6.745 4.466-2.818 0-4.61-1.44-4.61-3.633 0-2.195 1.753-3.216 5.106-3.216h6.25v2.383zm-19.166 4.806V11.042h-2.973v4.045c-1.446-2.646-4.04-4.16-7.469-4.16-5.374.037-9.07 3.971-9.07 9.532 0 5.676 3.738 9.65 9.147 9.65 3.39 0 5.98-1.514 7.392-4.162v3.027c0 4.16-2.858 6.81-7.24 6.81-2.667-.038-4.764-.908-6.745-2.535l-1.372 2.269c2.44 1.815 5.07 2.839 8.231 2.876 6.099 0 10.099-3.67 10.099-9.496zm-2.973-8.324c0 4.087-2.858 7.038-6.857 7.038-4.04 0-6.864-2.951-6.897-7.038.033-4.123 2.858-7.075 6.897-7.075 4 0 6.857 2.913 6.857 7.075zm-23.276 10.404h2.973V18.683c0-4.806-2.82-7.756-7.622-7.756-3.659.037-6.363 1.475-7.772 4.5v-4.385h-2.973v19.936h2.973V20.273c.343-3.785 2.78-6.357 6.741-6.396 3.548 0 5.68 2.082 5.68 5.6v11.501zm-39.021 0h18.265v-2.875H151.95v-9.08h14.076v-2.912h-14.076V7.407h15.053v-2.91h-18.1v26.481zm-16.543-14.867c0-1.855 1.715-2.65 3.964-2.65 1.866 0 3.885.644 5.449 1.626l1.144-2.344c-1.677-1.137-4.002-1.816-6.405-1.816-3.656 0-6.972 1.588-6.972 5.41-.038 7.074 11.202 4.615 11.09 9.42-.04 1.968-1.944 2.838-4.306 2.838-2.363 0-4.954-.946-6.669-2.536l-1.144 2.234c1.907 1.816 4.84 2.798 7.7 2.798 3.847 0 7.35-1.74 7.35-5.674 0-7.15-11.201-4.882-11.201-9.306zm-17.262 0c0-1.855 1.717-2.65 3.965-2.65 1.867 0 3.886.644 5.448 1.626l1.142-2.344c-1.675-1.137-4.002-1.816-6.4-1.816-3.657 0-6.973 1.588-6.973 5.41-.037 7.074 11.204 4.615 11.088 9.42-.039 1.968-1.942 2.838-4.305 2.838-2.366 0-4.955-.946-6.67-2.536l-1.142 2.234c1.903 1.816 4.839 2.798 7.696 2.798 3.85 0 7.355-1.74 7.355-5.674 0-7.15-11.204-4.882-11.204-9.306zm-6.4 4.88c0-5.94-4.23-10.027-10.174-10.027-5.946 0-10.175 4.086-10.175 10.027 0 5.977 4.23 10.1 10.175 10.1 5.944 0 10.173-4.123 10.173-10.1zm-2.972.039c0 4.387-3.012 7.413-7.202 7.413-4.194 0-7.202-3.026-7.202-7.413 0-4.353 3.008-7.38 7.202-7.38 4.19 0 7.202 3.027 7.202 7.38zm-19.358-7.114v-2.989c-3.393.037-5.868 1.627-7.203 4.54v-4.425h-2.973v19.936h2.973V20.386c.343-3.935 2.971-6.546 7.203-6.47zM50.804 17.7c0-5.828 4.84-10.446 10.861-10.446 2.936 0 5.83 1.252 7.886 3.332l1.83-2.308c-2.555-2.384-6.096-3.86-9.755-3.86-7.735 0-13.907 5.864-13.907 13.282 0 7.489 6.095 13.427 13.791 13.427 3.698 0 7.28-1.626 9.91-4.084l-1.869-2.08c-2.095 1.967-4.95 3.178-7.886 3.178-6.02 0-10.861-4.655-10.861-10.441zM31.45 15.84h4.593C35.144 7.594 28.614 1.03 20.35 0v4.57c5.748.966 10.25 5.522 11.101 11.27zM15.805 35.604v-4.57C9.417 29.959 4.547 24.45 4.547 17.8c0-6.648 4.87-12.154 11.258-13.23V0C6.896 1.112 0 8.654 0 17.801c0 9.149 6.896 16.691 15.805 17.803zm4.545-4.57v4.57c8.066-1.005 14.48-7.284 15.622-15.251H31.36c-1.06 5.469-5.458 9.745-11.01 10.68z" fill="#02153F" fill-rule="evenodd"/></svg>